<svg xmlns="http://www.w3.org/2000/svg" xmlns:xlink="http://www.w3.org/1999/xlink" viewBox="0 0 68.22 34.7"><defs><style>.cls-1{fill:url(#linear-gradient);}.cls-2{fill:url(#linear-gradient-2);}.cls-3{fill:url(#linear-gradient-3);}.cls-4{fill:url(#linear-gradient-4);}</style><linearGradient id="linear-gradient" x1="5.24" y1="19.75" x2="17.73" y2="19.75" gradientUnits="userSpaceOnUse"><stop offset="0" stop-color="#fff"/><stop offset="1" stop-color="#dfd9e8"/></linearGradient><linearGradient id="linear-gradient-2" x1="33.45" y1="9.69" x2="33.45" y2="32" gradientUnits="userSpaceOnUse"><stop offset="0" stop-color="#d0cade"/><stop offset="1" stop-color="#9e96b2"/></linearGradient><linearGradient id="linear-gradient-3" x1="46.47" y1="3.41" x2="46.47" y2="28.22" gradientUnits="userSpaceOnUse"><stop offset="0" stop-color="#e4dfec"/><stop offset="1" stop-color="#c5bdd6"/></linearGradient><linearGradient id="linear-gradient-4" x1="42.29" y1="-2.17" x2="42.29" y2="11.87" xlink:href="#linear-gradient"/></defs><title>CLOUD 2</title><g id="Layer_2" data-name="Layer 2"><g id="Layer_11" data-name="Layer 11"><g id="CLOUD_2" data-name="CLOUD 2"><path class="cls-1" d="M16.75,16.14s1.69,1.88-1.88,2.75-5.79,1-7.37,1.53-2.26,2.94-2.26,2.94,10.29-1.53,10.92-3.3S19,17.31,16.75,16.14Z"/><path class="cls-2" d="M29.33,7s-2.46,3.51-5.85,3.51S16,12.34,16.45,17c0,0,1.64,2.23-2.1,3s-7.38,0-8.66,2.46S4.4,25,1.47,25.21s-1.4,3.14,3.75,2.51,14-1.53,16.38.09,1.88,3.26,5.62,2.9,5.39.47,7.37,2.81,8.67.82,9.84-1.28S48.64,34,52,32s2.45-4.61,4.5-4.45,5.51,1.53,8.41-1.32,4.18-2.06-7.76-5.4-19.43-3.11-21.41-8.26A8.41,8.41,0,0,0,29.33,7Z"/><path class="cls-3" d="M48.09,10.94l5.31,3.51,4.13,2.81a24.22,24.22,0,0,0,8.2,2c3.74,0,3.51,5.85-2.34,7.6s-7.38.35-10.3,0-8.55,1.52-10,.12-1.41-4,1.17-4-1.52.12-4.45-.12-4.56-2.06-3.63-3.54-2.1-1.19-2.1-1.19-4.33,3-5.5,1.19,0-4.77,0-4.77l-2.46-4.21S24.35,12.81,24.79,7s5.59-5.74,5.59-5.74,5.74-1.52,7,2.23a13.93,13.93,0,0,0,3.44,5.62s2.42,1.75,3.7,1.75S48.09,10.94,48.09,10.94Z"/><path class="cls-4" d="M24.84,10.23s2.34-7.49,6.24-8.42,7.65,5.3,7,7.8a11,11,0,0,0,3.43.62c1.09-.15-.16,2,2.18,1.72s4.22-1.09,7,1.25,3.43,1.72,5,3.59A4.26,4.26,0,0,0,59.8,18S53.87,15.23,52,12.42s-8.42-2.5-8.42-2.5-.31-3.12-2.73-3.59S39.2,1.81,36.23.56s-8.11-.31-10,1.87S24.84,10.23,24.84,10.23Z"/></g></g></g></svg>