<svg xmlns="http://www.w3.org/2000/svg" xmlns:xlink="http://www.w3.org/1999/xlink" viewBox="0 0 50.42 20.48"><defs><style>.cls-1{fill:url(#linear-gradient);}.cls-2{fill:url(#linear-gradient-2);}.cls-3{fill:url(#linear-gradient-3);}</style><linearGradient id="linear-gradient" x1="25.79" y1="13.08" x2="25.67" y2="20.97" gradientUnits="userSpaceOnUse"><stop offset="0" stop-color="#cdcbdf"/><stop offset="1" stop-color="#b5afbc"/></linearGradient><linearGradient id="linear-gradient-2" x1="25.25" y1="6.02" x2="25.13" y2="17.35" gradientUnits="userSpaceOnUse"><stop offset="0" stop-color="#e3d7f4"/><stop offset="1" stop-color="#cbcadd"/></linearGradient><linearGradient id="linear-gradient-3" x1="24.51" y1="0.07" x2="24.47" y2="11.02" gradientUnits="userSpaceOnUse"><stop offset="0" stop-color="#f2f2f2"/><stop offset="1" stop-color="#e3e1f4"/></linearGradient></defs><title>CLOUD 3</title><g id="Layer_2" data-name="Layer 2"><g id="Layer_11" data-name="Layer 11"><g id="CLOUD_3" data-name="CLOUD 3"><path class="cls-1" d="M42.83,11.68l3.74,2.71s2.07-1,3.68,2.82S41.1,19,39.61,17.73c0,0-2.25,3.91-7.37,2.41,0,0-3.05-.8-3.8-2.53,0,0-1.67,2.93-4.37,2.87s-5.24-1-5.52-3.27c0,0-.7,3.33-4.67,2.18S10,15.71,10,15.71s-.8,3.51-4.14,2.59S1.92,14.16,1.4,13.12s-.29-2,.23-2.07A21.42,21.42,0,0,0,5.77,9.84c.86-.52,3.51-.8,4.14-1s.52-.69,1-2.13S14.23,4,17.16,3.86s4.44-.41,6.05,1.44,7,2.24,9,3.05,3.68,2.15,5.7,2.4S42.83,11.68,42.83,11.68Z"/><path class="cls-2" d="M1.4,11.63s1.38,3.45,2.53,3.79,5.12,1.27,6.85-.8c0,0,.51-.81,2.3,0s5,.16,5.64-.84c0,0,.46.32,0,1.13,0,0,.86-1.33,1.55-.7s2.36,1.95,3.17,2l.8,0L23,16.52a7.58,7.58,0,0,0,3.34.69c1.9-.06,7.71.23,7.42-1.79,0,0,.43-1.21,0-1.49a4.58,4.58,0,0,0,3.26.49,5.09,5.09,0,0,0,2.71-1.13s-1.9,1.85.92,1.85S44,14.42,44,14.42s-2,1.79-.69,1.77,5.59.21,5.59.21l-5.59-5S36.1,11.34,31.26,10s-8-4.26-10.47-5a10.23,10.23,0,0,0-5.64-.46c-2,.35-1.32,1.67-2.88,2.19S11.35,8.86,8.94,9a51.37,51.37,0,0,0-6.68,1.21C2,10.19,1.4,11.63,1.4,11.63Z"/><path class="cls-3" d="M45.94,12.78s1.49-4.95-4.15-5.41c0,0-2.64-.35-4.95,2.7,0,0-2-4-5.4-1.32,0,0,.69-3.86-4-3.22,0,0,.81-5.53-5.23-5.53,0,0-4.89-.17-5,3.45A5.41,5.41,0,0,0,11,4.26a5.43,5.43,0,0,0-.81,3.8,7.32,7.32,0,0,0-3.91-.92C4.22,7.31,3.93,9.32,3,9.44s-3.22.69-3,2c0,0,0,1.89,2.93,1s3.68-.92,4.32-.75,1-1.67,2.47-2.13,4.55-.57,3.57-.92-2.76-1.26-1.73-1.09,1.5.81,2.42.58.4-.7,1.78-1.33,3,.06,2.71-.4.23-1-2.13-1S12.68,4.6,14.52,5s3-1,4.49,1.38A7.67,7.67,0,0,0,21,7.31c.81.17,1.15,2,1.15,2a18.55,18.55,0,0,0,3.8.81c1-.06,1.15,1.5,1.21,2.13s.86-.75,2.93-.75,2.25,1.5,4.78,1.73a10.67,10.67,0,0,0,3.63,0,4.15,4.15,0,0,0,2.36-.92s.11,1.55-1.21,1.72,3.45.46,4.43,0,2.24-.86,1.15-.06-2.3,2.42.29,2.19,4.72-2.24,2.59-2.82-2.19.06-2.19.06Z"/></g></g></g></svg>