<svg xmlns="http://www.w3.org/2000/svg" xmlns:xlink="http://www.w3.org/1999/xlink" viewBox="0 0 107.76 31.72"><defs><style>.cls-1{fill:url(#linear-gradient);}.cls-2{fill:url(#linear-gradient-2);}.cls-3{fill:url(#linear-gradient-3);}.cls-4{fill:#ccbed3;}</style><linearGradient id="linear-gradient" x1="53.88" y1="-2.12" x2="53.88" y2="32.6" gradientUnits="userSpaceOnUse"><stop offset="0" stop-color="#fff"/><stop offset="1" stop-color="#dfd9e8"/></linearGradient><linearGradient id="linear-gradient-2" x1="55.79" y1="15.19" x2="45.9" y2="25" gradientUnits="userSpaceOnUse"><stop offset="0" stop-color="#afa3b5"/><stop offset="1" stop-color="#e0d4e9"/></linearGradient><linearGradient id="linear-gradient-3" x1="89.16" y1="18.26" x2="69.41" y2="25.27" xlink:href="#linear-gradient-2"/></defs><title>CLOUD 1</title><g id="Layer_2" data-name="Layer 2"><g id="Layer_11" data-name="Layer 11"><g id="CLOUD_1" data-name="CLOUD 1"><path class="cls-1" d="M107.49,28.82c-1.56,2.17-5,.61-5,.61-.59.73-2.45.95-4.24.84s-1.42-1-2.68-.67a10.59,10.59,0,0,1-5.44.45c-2.08-.56-2.75-.06-2.75-.06a7.32,7.32,0,0,1-6.18,1.56c-2.16-.5-2.9-1.73-3.65-1.34s-2,.78-5.14.11-2.9-1.05-4.39-.61a26.85,26.85,0,0,1-5.88.72c-1.42,0-1.19-.33-2.83-.72s-1,.34-1.79.56a39.92,39.92,0,0,1-4.84.16l-3.35-.89s-1,.23-2.45.51A19.45,19.45,0,0,1,42.2,30a23.27,23.27,0,0,0-4-.28c-2.53.06-2,.61-5,.72a11.51,11.51,0,0,1-3.73-.33c-1-.05-1.93,1.39-4.76,1.45S20.9,31,20.16,30.1s-1-.28-3.06.23a7.27,7.27,0,0,1-5.06-.9c-.74-.5-1.26.84-4.09.89s-1.72-1.61-2.16-1-2.53.73-4.69.34S.28,27.82,2.44,28s1.78-.39,1.78-.39c-.15-1.84,3.43-2,3.43-2a.28.28,0,0,1-.06-.06c-.12-.15-.27-.57,1-1.05a13.41,13.41,0,0,0,2.53-1.23,2.23,2.23,0,0,1,.9-2.24,11.11,11.11,0,0,1,2.89-1.8h0a22.35,22.35,0,0,1,2.68-1c-1.73-2.37,1.7-5.42,5.9-5.61H24c1.8,0,3.2,0,4.39.15a40.4,40.4,0,0,1,4.4.63c2.07.39,6.58-1.46,7.71-1.95l.09,0,.11-.05.06,0C39.24,9.45,39,8,39.46,6.89c1-2.64,5.79-3.28,5.79-3.28,9.3-8.13,16.82,0,16.82,0,6-.17,6,5,6,5,1.56,1.12.5,2.79.12,3.3.18-.06.63,0,1.74.65a5.92,5.92,0,0,0,3.64.52,7.89,7.89,0,0,0,1-.19c2.38-1.89,7.74-1.06,7.74-1.06a17.63,17.63,0,0,1,2,.72c5.06,2.25,5.11,6,5.11,6,9.09,1.39,4.32,5.68,4.32,5.68s3.8,1.72,6.41,1.5,3.27,2.5,3.27,2.5S109.05,26.65,107.49,28.82Z"/><path class="cls-2" d="M37.41,14s5.59.58,5.64,2.59,2.07-1,4,.41-.9,2.49,1.06,2.48,3.07-1.85,5-.6,2.73,2,2.45,3.55,2-2.17,4.42,0,3,2.41,3.62,3.33l.62.92a3.34,3.34,0,0,0-2.57-.92,7.13,7.13,0,0,0-2.68.51s-.65-1.29-2.94-1.32a14.86,14.86,0,0,1-3.09-.23,5,5,0,0,0-2.53-2.54,6.53,6.53,0,0,0-3-.56,21.68,21.68,0,0,0-2.73.6l-2.06-.61H40.07l1.39-1.14,1.09-2.15-.76-1.76-2.06-1.39-3-.81Z"/><path class="cls-3" d="M92.45,24s1-2.85-2.75-3.68-2.91,1.51-5.36-1S82.47,16.64,79,16.8s-.9,2.56-5.14,1.89a15.25,15.25,0,0,0-7.75.89l.23.34a13.29,13.29,0,0,1,7.1.22c3.15,1,2.87,2.34,2.87,2.34s3.88-1,5.87-.42a5.58,5.58,0,0,1,2.73,1.56S88,21.81,92.45,24Z"/><path class="cls-4" d="M36.76,14.19s9.53,1.89,3.05,7.48c0,0,3.69-.33,4.69.75,0,0,3.58-1.67,5.92,0s2.24,2.51,2.24,2.51,3.9-1,6.25,1.16c0,0,3.8-1,5,.76,0,0-1.2-2.15-4.84-1.37,0,0-1.94-1.61-6.18-1.17,0,0-.67-4.11-8.19-2.5,0,0-2.53-.83-3.91-.47C40.82,21.34,47.25,15.71,36.76,14.19Z"/><path class="cls-4" d="M19.82,18.71s7.26,1.83,3.46,4.05-5.08,3-5.08,3,4.1-1.17,6.18,0,1.81,1.3,1.81,1.3-1.29-2.63-5.42-2.22C20.77,24.88,31.55,20.34,19.82,18.71Z"/><path class="cls-4" d="M14,24.15a17.4,17.4,0,0,1-2.91.83,14,14,0,0,1-3.48.61c-.12-.15-.27-.57,1-1.05a13.41,13.41,0,0,0,2.53-1.23,2.23,2.23,0,0,1,.9-2.24C12.12,22.38,12.52,24,14,24.15Z"/><path class="cls-4" d="M23.53,12.64a4.51,4.51,0,0,1-1.33.93c-1.82.9-3.23,1.67-3.61,2.84a3.14,3.14,0,0,0,.3,2.3L15,19.27a22.35,22.35,0,0,1,2.68-1C15.9,15.88,19.33,12.83,23.53,12.64Z"/><path class="cls-4" d="M40.45,11.46c-1.43.67-2,1.63-4.21,1.95s-1.78.68-5.21,0c-.92-.18-1.84-.4-2.69-.63a40.4,40.4,0,0,1,4.4.63C34.81,13.8,39.32,12,40.45,11.46Z"/><path class="cls-4" d="M42.42,11l.81.24a6.34,6.34,0,0,0-2.52.15C39.24,9.45,39,8,39.46,6.89l.8.06S38.92,9.85,42.42,11Z"/><path class="cls-4" d="M48.08,12a16.37,16.37,0,0,1-4.85-.76A40.91,40.91,0,0,1,48.08,12Z"/><path class="cls-4" d="M92.45,24s-1.19-1.28-4.09-1.17-3.35.58-3.35.58a5.37,5.37,0,0,0-4.77-1.58,15,15,0,0,0-3.95.67s0-2.39-4.54-2.9-5.66,0-5.66,0,.67-4.84-6.4-4.95c0,0,6.26,1.06,5.88,5L66,20s7.82-1.67,10,2.79c0,0,6.7-1.73,8.49.77l.37.45S86.5,21.87,92.45,24Z"/><path class="cls-4" d="M63.94,4.56s4.31,3.84-1.2,5.79C62.74,10.35,70.26,9,63.94,4.56Z"/><path class="cls-4" d="M84.21,12.51a20.31,20.31,0,0,0-4,.06c-4.4.56-6,1.45-6.48.78a1.11,1.11,0,0,1-.16-.31,7.89,7.89,0,0,0,1-.19c2.38-1.89,7.74-1.06,7.74-1.06A17.63,17.63,0,0,1,84.21,12.51Z"/></g></g></g></svg>