<svg xmlns="http://www.w3.org/2000/svg" viewBox="0 0 114.57 35.59"><defs><style>.cls-1{fill:#fff;}.cls-2{fill:#b6b4bf;}.cls-3{fill:#d8d8d8;}.cls-4{fill:#b0adc4;}.cls-5{fill:#f2f2f2;}</style></defs><title>CLOUD 5</title><g id="Layer_2" data-name="Layer 2"><g id="Layer_11" data-name="Layer 11"><g id="CLOUD_5" data-name="CLOUD 5"><path class="cls-1" d="M114.38,26.8c-1.56.42-6.94,1-5.53,1s7.37.14,4.4.42a65.35,65.35,0,0,1-7.09.14s-3.83.86-5.1,0a3.77,3.77,0,0,1-.64,1.08c-.83,1-2.59,2.24-6,1.33-5.39-1.41-7.94.32-7.94.32a5.59,5.59,0,0,1-3.48.51,2.33,2.33,0,0,1-1.62-1.87c0-.09,0-.17-.07-.24-.4-1.38-1-1.23-1.51-.48A6.09,6.09,0,0,0,79,32.75c.42,2-4.82,1.84-6.24,1s-2.55,1.61-6.8.59c-1.18-.28-2.12-.46-2.9-.59-2.06-.34-3-.34-3.9-.85-.55-.3-1,.2-1.62.84-.81.85-1.85,2-3.63,1.71-3.12-.42-3.12-1.84-3.12-1.84s-8.64.46-9.21-1.69c0,0-5.81,4.45-11.2,3.57s-6.66-2.31-6.66-2.31-2.55.71-3-2.69c0,0-2.81.35-5.69.48s-5.86,0-6.08-.9c0,0-5.24.85-4.67-1.71,0,0-4.4,1.71-4.26,0a3.9,3.9,0,0,1,.16-.77,3.3,3.3,0,0,1,3.67-2.2,4,4,0,0,0,3.54-1.56,2.74,2.74,0,0,1-2-3.26s-1.28.85-2.41-.85S-.14,18.86.85,18.43c.53-.22.7-.65,1.39-1A8.37,8.37,0,0,1,6,16.87H7.23a2.2,2.2,0,0,1,2.55-2c2.41.14,2.7,1.28,2.7,1.28a19.11,19.11,0,0,1,7.22-1.29c3.26.29,3.83-.41,3.83-2.26,0,0-16.58,1.14-15.73,0s8.14-.89,9.75-.86c-1.68-.09-9.49-.54-4.79-1.69a16,16,0,0,1,7.78-.18C19,9.39,15.31,8,19.7,7.52L25.09,7s2.27-7.51,8.22-4.39c0,0,.85-2.41,2.27-2.55s3,1.42,2.55,7.79c0,0,4.25.15,3.4,5a8.61,8.61,0,0,1,1.69.21c1.31.28,3,1,3.41,2.63,0,0,6.38,2.55,4.25,5.67a7.39,7.39,0,0,1,6.95,2.41,13,13,0,0,1,7.65.14c3.55,1.42,7.23-1.7,7.94-2l.71-.29a7.79,7.79,0,0,1-2.6-.82A.94.94,0,0,1,71,20c0-.93-14,.25-17.77.06h0c-.8,0-1.14-.14-.8-.34a.8.8,0,0,1,.16-.08c1.16-.53,4.41-1,7.42-1.31-.23-.08-.17-.24.36-.52,2.55-1.35,10.21-1.21,10.21-1.21S75,13.47,79.66,14c2,.24,2.8.6,3.11.94a3.1,3.1,0,0,1,2.56-2.64c2.55-.28,3.4.71,3.54,3.54,0,0,3.12-.42,4.25.14s.28-1.55,1.84-.85a2.78,2.78,0,0,1,1.42,2.63s1.7,2.9,3.4,2.9,2.55,2.84,2.55,2.84-.85.7,2.41.7,2.7,2.7,2.7,2.7S115.94,26.37,114.38,26.8Z"/><path class="cls-2" d="M52.44,19.71a.8.8,0,0,1,.16-.08c.21.15.42.29.64.42C52.44,20,52.1,19.91,52.44,19.71Z"/><path class="cls-3" d="M77.53,22.26a14.07,14.07,0,0,1-2.13.85c-1,.28-.42,2.2-1.06,2.48s-.57-1.42-2.12-1.2.35,2.9-1.42,3.33-2.62.21-5,.92c-.77.23-1.11.51-1.2.79-.18.6.63,1.26.77,1.83s-.26.43-1,.26h0c-.66-.15-1.62-.43-2.77-.6-2.41-.36-2.48-2.27-4.37-4.89s-5.91-2.06-6.55-2.2-.14-1.49-.14-1.49A1.51,1.51,0,0,1,49,20.49c0-3.62-3.9-3.54-5.45-6.45A3,3,0,0,1,43.22,13c1.31.28,3,1,3.41,2.63,0,0,6.38,2.55,4.25,5.67a7.39,7.39,0,0,1,6.95,2.41,13,13,0,0,1,7.65.14c3.55,1.42,7.23-1.7,7.94-2l.71-.29a7.79,7.79,0,0,1-2.6-.82C74.1,20.32,77.53,22.26,77.53,22.26Z"/><path class="cls-4" d="M79.21,30.26A5.29,5.29,0,0,0,79,32.75c.42,2-4.82,1.84-6.24,1s-2.55,1.61-6.8.59c-1.18-.28-2.12-.46-2.9-.59a6.32,6.32,0,0,1,1.62-1.13c.28-.14.09-.58-.2-1.1-.45-.82-1.14-1.84-.58-2.23a.49.49,0,0,1,.79.15c.35.52.67,1.65,1.41,3,1.19,2.12,3,.57,5.53.36s1.84-1.06,4.67-1.12A4.31,4.31,0,0,0,79.21,30.26Z"/><path class="cls-2" d="M80.92,29.29c-.22-.08-.46-.14-.75-.25a4.57,4.57,0,0,0,.34-.6A7.26,7.26,0,0,1,80.92,29.29Z"/><path class="cls-3" d="M14.39,23.54c0,1.48-.21,1.91-3.54,3s-2.67.72-6.67.85c-1.84.06-3.17.2-4,.22a3.3,3.3,0,0,1,3.67-2.2,4,4,0,0,0,3.54-1.56,2.74,2.74,0,0,1-2-3.26s-1.28.85-2.41-.85S-.14,18.86.85,18.43c.53-.22.7-.65,1.39-1a1.56,1.56,0,0,0,1.45,1.42c2.58.48,3.53,0,3.61,0-.09.09-1.21,1.26,2.27,2.48S14.39,22.05,14.39,23.54Z"/><path class="cls-5" d="M57.49,33.73c-.81.85-1.85,2-3.63,1.71-3.12-.42-3.12-1.84-3.12-1.84s-8.64.46-9.21-1.69c0,0-5.81,4.45-11.2,3.57s-6.66-2.31-6.66-2.31-2.55.71-3-2.69c0,0-2.81.35-5.69.48a6.3,6.3,0,0,1-.62-.76c-2.15-3.12-.87-2.74,1.49-5.29s8.22-1.14,8.22-1.14c-3.59-1.6-4.54-5.57-2.18-7.18s5.3,4.63,4.73,2.17-2.27-9.92,6.42-9.82c7.18.08,6.31,8.48,5.78,11.41.83-2.36,3.87-2.24,7-1.4,3.5.95,5.76,8.63,5.76,8.63,4.92-.35,5.7,5,5.7,5A11,11,0,0,1,57.49,33.73Z"/><path class="cls-5" d="M100.42,29.43c-.83,1-2.59,2.24-6,1.33-5.39-1.41-7.94.32-7.94.32a5.59,5.59,0,0,1-3.48.51,6,6,0,0,0-1.69-2.11,2.16,2.16,0,0,0-.37-.19c-.22-.08-.46-.14-.75-.25a.77.77,0,0,0-.39,0c-.84.14-1.34,1.78-2.68,1.84-1.52.07-1.62.14-2.4-.78s1.06-3,4.74-4.39,1.7,2,3.62,1.72,2.83-2.72,6.59-1.27,4,1.74,6.87.46,3,.5,3,.5A4.84,4.84,0,0,1,100.42,29.43Z"/></g></g></g></svg>