<svg xmlns="http://www.w3.org/2000/svg" xmlns:xlink="http://www.w3.org/1999/xlink" viewBox="0 0 89.39 40.41"><defs><style>.cls-1{fill:url(#linear-gradient);}.cls-2{fill:url(#linear-gradient-2);}.cls-3{fill:url(#linear-gradient-3);}</style><linearGradient id="linear-gradient" x1="49.82" y1="11.87" x2="47.85" y2="21.2" gradientUnits="userSpaceOnUse"><stop offset="0" stop-color="#e6e6e6"/><stop offset="1" stop-color="#e6e6e6"/></linearGradient><linearGradient id="linear-gradient-2" x1="49.15" y1="16.82" x2="41.12" y2="43.52" gradientUnits="userSpaceOnUse"><stop offset="0" stop-color="#e6e6e6"/><stop offset="1" stop-color="#b3b3b3"/></linearGradient><linearGradient id="linear-gradient-3" x1="62.69" y1="-1" x2="59.58" y2="23.08" gradientUnits="userSpaceOnUse"><stop offset="0" stop-color="#fff"/><stop offset="1" stop-color="#e6e6e6"/></linearGradient></defs><title>CLOUD 4</title><g id="Layer_2" data-name="Layer 2"><g id="Layer_11" data-name="Layer 11"><g id="CLOUD_4" data-name="CLOUD 4"><path class="cls-1" d="M37.14,5.94s-8,1-10.26,4-.66,5.14-.66,5.14-3.93-.66-5.35,1.52,2.95,2.41,2.95,2.41-4.26.87-4.59,3.49a12.37,12.37,0,0,1-5.46.77c-2.84-.33-4.37.54-4.48,2.51,0,0-5.67-2-6,3.49,0,0,2.73,5,7.86,0,0,0,4.92,4.81,7.75-1.2,0,0,7.76,2.4,11.85-1.75,0,0-1.8,3.83,4.1,4.37s13.21.77,12.88-3.6c0,0,6.67-1.75,9.07,1s8,5.46,11.9,4.59,4.81,2.07,7,1.8,5.9,1.8,8.74.71,8.62-4.7-2.24-6.44S60.07,16.43,60.07,16.43L42.71,6.71Z"/><path class="cls-2" d="M28.62,12.6s-2.29-2.51-6.44,0-8,4.15-3.93,10.92c0,0-7.43,3.5-9.72,3.61s-6.44-.11-8.19,4,3.28,8.94,14.14,4.36c0,0,5.95,3.61,18.18,1,0,0,1.53,4.48,12.34,3.82a17.2,17.2,0,0,0,9.61-4.81,35.38,35.38,0,0,0,14.64,2.41C77,37.39,76,34.88,81.48,36A6.71,6.71,0,0,0,89,32.27s-25.56-4.27-32.77-9S39,18.61,34.85,16.43A44.66,44.66,0,0,1,28.62,12.6Z"/><path class="cls-3" d="M84.48,34.5s12.45-3.61-2.29-5.73c0,0-.82-2-5.24-1.31,0,0-1.15-5.41-9.18-4.43,0,0,.17-4.26-5.08-7.2,0,0,.82-8-8-8.85,0,0-7.86-12.45-21.13-4.1A17.24,17.24,0,0,0,30.75,7V8.13s5.24-.5,6.06,2.45c0,0,8.85-5.89,7.54,4.43,0,0,4.59-1,7,2.94,0,0,9.5-1.31,11.63,2.46l1.8,3.28S71.54,24,74.65,28c0,0,.38,1,2.35.92s7.43,1.1,8.85,1.53S86.39,33.9,84.48,34.5Z"/></g></g></g></svg>