<svg width="1440" height="732" viewBox="0 0 1440 732" fill="none" xmlns="http://www.w3.org/2000/svg">
<path d="M1009.91 19.4274C1108.81 39.7486 1340.17 36.5499 1443.48 32.4104V721.073C1443.48 675.915 1215.38 634.708 1103.94 675.915C992.5 717.122 853.202 723.895 637.29 721.073C421.377 718.251 574.605 666.883 348.246 675.915C167.158 683.14 40.6287 716.181 0 731.798V675.915V84.3423C20.8947 59.5053 95.4193 8.47653 226.36 3.05754C390.035 -3.71619 341.281 32.4104 485.803 48.2158C630.325 64.0211 602.465 44.2645 731.316 19.4274C860.167 -5.40958 886.285 -5.97406 1009.91 19.4274Z" fill="#00082C"/>
</svg>
