<svg xmlns="http://www.w3.org/2000/svg" viewBox="0 0 1125 1585.98"><defs><style>.cls-1{fill:#00082c;}</style></defs><title>Hero form</title><g id="Layer_2" data-name="Layer 2"><g id="Layer_11" data-name="Layer 11"><path id="Section_one_form" data-name="Section one form" class="cls-1" d="M1039.45,45.61c-87.23-26.49-102.59,2.74-193.7,14.14s-76.68-9.44-161.58-39.86S531.27-7.39,400.23,38.59s-157.44,43-215.52,37.19S128,55.23,81.47,56.17,0,119.5,0,119.5V1509.34s-1.67,4.54,85.56,31,102.59-2.74,193.69-14.14,76.68,9.44,161.59,39.86,152.9,27.28,283.93-18.7,157.45-43,215.52-37.19,56.69,20.55,103.24,19.61,81.47-63.33,81.47-63.33V76.64S1126.68,72.1,1039.45,45.61Z"/></g></g></svg>