<svg xmlns="http://www.w3.org/2000/svg" xmlns:xlink="http://www.w3.org/1999/xlink" viewBox="0 0 636.58 659.18"><defs><style>.cls-1{isolation:isolate;}.cls-2{fill:url(#linear-gradient);}.cls-3{fill:url(#linear-gradient-2);}.cls-4{fill:url(#linear-gradient-3);}.cls-5{fill:url(#linear-gradient-4);}.cls-6{fill:url(#linear-gradient-5);}.cls-7{fill:url(#linear-gradient-6);}.cls-8{fill:url(#linear-gradient-7);}.cls-9{fill:url(#linear-gradient-8);}.cls-10{fill:url(#linear-gradient-9);}.cls-11{fill:#f9ea82;}.cls-12{fill:#4c5684;}.cls-13{fill:#ffd3bd;}.cls-14{fill:#f4c7b3;}.cls-15{fill:#eded54;}.cls-16{opacity:0.25;fill:url(#linear-gradient-10);}.cls-17{fill:#4757b2;}.cls-18{fill:#ff9203;}.cls-19,.cls-26{fill:#fff;}.cls-20{fill:#b57352;}.cls-21{fill:#a34e29;}.cls-22{opacity:0.12;}.cls-23{fill:#ff9906;}.cls-24{fill:url(#linear-gradient-11);}.cls-25{fill:url(#linear-gradient-12);}.cls-26{opacity:0.26;}.cls-27{fill:#ffff9c;opacity:0.49;mix-blend-mode:screen;}.cls-28{fill:#d4f4f0;}.cls-29{fill:#7a481f;}</style><linearGradient id="linear-gradient" x1="324.94" y1="572.39" x2="324.94" gradientUnits="userSpaceOnUse"><stop offset="0" stop-color="#30076b"/><stop offset="1" stop-color="#7343b0"/></linearGradient><linearGradient id="linear-gradient-2" x1="530.49" y1="93.64" x2="548.17" y2="93.64" xlink:href="#linear-gradient"/><linearGradient id="linear-gradient-3" x1="547.43" y1="119.05" x2="559.95" y2="119.05" xlink:href="#linear-gradient"/><linearGradient id="linear-gradient-4" x1="564.37" y1="102.48" x2="573.21" y2="102.48" xlink:href="#linear-gradient"/><linearGradient id="linear-gradient-5" x1="492.17" y1="119.13" x2="537.86" y2="119.13" xlink:href="#linear-gradient"/><linearGradient id="linear-gradient-6" x1="11.14" y1="305.21" x2="114.19" y2="305.21" xlink:href="#linear-gradient"/><linearGradient id="linear-gradient-7" x1="0" y1="248.58" x2="104.73" y2="248.58" xlink:href="#linear-gradient"/><linearGradient id="linear-gradient-8" x1="2.56" y1="205.31" x2="86.46" y2="205.31" xlink:href="#linear-gradient"/><linearGradient id="linear-gradient-9" x1="499.41" y1="307.12" x2="629.55" y2="307.12" xlink:href="#linear-gradient"/><linearGradient id="linear-gradient-10" x1="267.01" y1="214.9" x2="267.75" y2="237.5" gradientUnits="userSpaceOnUse"><stop offset="0" stop-opacity="0.3"/><stop offset="1" stop-color="#ffcbae"/></linearGradient><linearGradient id="linear-gradient-11" x1="133.55" y1="140.45" x2="137.15" y2="250.84" gradientUnits="userSpaceOnUse"><stop offset="0" stop-color="#ffac06"/><stop offset="0.46" stop-color="#ffa305"/><stop offset="0.99" stop-color="#ff9203"/></linearGradient><linearGradient id="linear-gradient-12" x1="153.75" y1="492.55" x2="157.35" y2="602.96" gradientTransform="matrix(1, -0.05, 0.05, 1, -21.82, 24.9)" xlink:href="#linear-gradient-11"/></defs><title>Asset 23</title><g class="cls-1"><g id="Layer_2" data-name="Layer 2"><g id="Section_One" data-name="Section One"><text/><path class="cls-2" d="M617.56,186.91c-.28.45-.58.89-.89,1.32-5.6,7.7-14.32,12.76-22.52,17.31-5,2.78-10.1,5.36-15.21,7.91-5.57,2.77-11.16,5.5-16.72,8.31-5.77,2.91-11.5,5.9-17.14,9.08s-11.16,6.56-16.49,10.25a129.73,129.73,0,0,0-14.77,11.78,85.78,85.78,0,0,0-12,13.7,64.3,64.3,0,0,0-8.1,16,61.84,61.84,0,0,0-3.17,18.68A79.84,79.84,0,0,0,493.44,323a126.85,126.85,0,0,0,9.94,25.18,220.45,220.45,0,0,0,18.11,29c1.77,2.45,3.59,4.86,5.43,7.25,93.63,121.36,95.38,180.76-77.44,184.39,0,0-59.63,3-134.52,3.51h-3.8c-9.25,0-18.72,0-28.32,0-68.53-.33-144-3.26-196.67-12.57C38.08,551.28,102.64,509.48,99,455.54c-2-30-95-63.79-61.3-87.74,85.14-60.49,94-96.74,77.49-149.67s-50-64-3-125.18c19.56-25.45,50.92-29.9,83.08-30.27,2.89,0,5.78,0,8.67,0,9.56.07,19.11.36,28.34.44,2.2,0,4.38,0,6.53,0,29-.15,54.27-3.57,66.32-24.69C320.37,11.85,354.21.36,389.77,0H391c70.29-.2,146.57,42.87,98.36,98.67-6.25,7.23-13.41,17.58-9.84,27.63,3.1,8.75,12.69,13.68,20.71,17,12.06,5,25,7.81,37.77,10.37,14,2.82,28.14,5.16,42.18,7.93,10.39,2.05,20.93,4.23,30.48,9a22.12,22.12,0,0,1,5.81,3.86,9.78,9.78,0,0,1,3,6.14A11,11,0,0,1,617.56,186.91Z"/><path class="cls-3" d="M539.93,84.83a8.84,8.84,0,1,0,8.21,9.42A8.82,8.82,0,0,0,539.93,84.83Zm-1.34,8.08c-1.22,0-2.21-1.48-2.21-3.32s1-3.31,2.21-3.31,2.21,1.48,2.21,3.31S539.82,92.91,538.59,92.91Z"/><path class="cls-4" d="M553.69,112.79a6.26,6.26,0,1,0,6.26,6.26A6.26,6.26,0,0,0,553.69,112.79Zm-1.47,3.68a1.11,1.11,0,1,1,1.1-1.1A1.1,1.1,0,0,1,552.22,116.47Z"/><circle class="cls-5" cx="568.79" cy="102.48" r="4.42"/><path class="cls-6" d="M523,103.16c-11.82-5.91-25-3.54-29.38,5.28s1.6,20.75,13.42,26.65,25,3.55,29.38-5.27S534.82,109.06,523,103.16Zm-10.18,6a2.95,2.95,0,1,1,2.95-3A2.95,2.95,0,0,1,512.82,109.11Z"/><path class="cls-7" d="M96.77,265.22c-22.83,33.87-26.51,16.94-58.18,51.55S2.51,393.35,26.07,354.32c0,0,86.16-44.92,86.9-83.95S119.59,231.35,96.77,265.22ZM52.58,324.13c-1.62,0-2.94-2.47-2.94-5.52s1.32-5.53,2.94-5.53,3,2.48,3,5.53S54.21,324.13,52.58,324.13Zm37.19-28c-3.45,0-6.26-1.65-6.26-3.68s2.81-3.69,6.26-3.69S96,290.43,96,292.47,93.22,296.15,89.77,296.15Zm17.31-22.09c-1.63,0-3-1.82-3-4.05s1.32-4.05,3-4.05S110,267.77,110,270,108.7,274.06,107.08,274.06Z"/><path class="cls-8" d="M93.08,187.16S73.94,145.93,62.16,157s37.55,35.35,32.4,67S65.1,253.44,50.37,240.92s-39-9.57-30.19,14.73S26.07,266,8.4,291.73,4,360.21,20.18,333.7c0,0,22.83-48.6,51.55-56S117.39,224.72,93.08,187.16ZM71.73,255.65a3.68,3.68,0,1,1-3.68,3.68A3.68,3.68,0,0,1,71.73,255.65ZM27.59,252c-.74-4.42,2.95-2.94,5.16,0,0,0,5.89,2.95,2.2,3.68s-3.68.74-2.2,4.42-2.95,1.47-7.37-3.68S28.33,256.42,27.59,252ZM14.66,324.13c-3.05,0-5.52-3.62-5.52-8.1s2.47-8.1,5.52-8.1,5.52,3.62,5.52,8.1S17.71,324.13,14.66,324.13Zm22.5-25.74c-2.94-1.47-8.83,2.21-8.1,10.31a8.57,8.57,0,0,1-6.62,9.58A94.32,94.32,0,0,1,25.38,308c2.21-6.63-6.63-12.52-5.15-17.68S26.85,280,26.85,280c4.42-5.89-3.68,8.84-2.94,11.79s2.94-5.9,7.36-6.63-3.68,4.42-1.47,8.83,8.84-2.94,12.52-2.2S40.11,299.87,37.16,298.39Zm5.11-17c-3.66,0-6.62-3.46-6.62-7.73s3-7.73,6.62-7.73,6.63,3.46,6.63,7.73S45.93,281.42,42.27,281.42Zm5.53-22.09a5.53,5.53,0,1,1,5.52-5.52A5.53,5.53,0,0,1,47.8,259.33Zm23.24,14c-3.68.73.73.73-5.16,2.94S54.1,283.67,55.57,280s8.84-5.89,8.84-5.89-5.15-1.47-5.15-5.15.73-1.48-2.95-2.95-4.42-6.63-.74-4.42,8.1,6.63,5.89,3.69-4.41-7.37-2.94-5.9A61.91,61.91,0,0,1,64.41,266c2.21,2.95,5.15,2.95,3.68.74s0-2.21,2.21-.74,4.42-1.47,4.42,0,0,2.21-1.47,2.95,1.47-.74,2.21.73S74.72,272.62,71,273.36Z"/><path class="cls-9" d="M62.89,179.8s-8.1-9.57-16.93-5.89,4.41,7.36,7.36,22.09S43,190.11,34.17,178.33s-8.83,1.47-2.94,8.83,7.36,17.68-4.42,16.2S25.34,190.11,15,187.16s-2.95,8.1,2.21,18.41-2.95,11.78-11.78,19.88,5.15,17.68,7.36,8.1c1.24-5.36,5.24-11.41,12.41-12.85a1,1,0,0,1-.63-.77c0-.61,1-1.1,2.21-1.1s2.21.49,2.21,1.1a.73.73,0,0,1-.18.45c5.13.07,11.54,2.31,19.33,8,22.09,16.2,38.29-.74,38.29-13.25S62.89,179.8,62.89,179.8ZM12.82,228.4a1.48,1.48,0,1,1,1.47-1.47A1.47,1.47,0,0,1,12.82,228.4Zm21-14.73a1.11,1.11,0,1,1,1.1-1.1A1.1,1.1,0,0,1,33.81,213.67Zm1.84-7.36a1.48,1.48,0,1,1,1.47-1.47A1.48,1.48,0,0,1,35.65,206.31Zm4.42,6.63a1.48,1.48,0,1,1,0-2.95,1.48,1.48,0,0,1,0,2.95Zm2.2-12.89a2.25,2.25,0,1,1,2.21,1.84A2,2,0,0,1,42.27,200.05Zm4.42,22.46a1.88,1.88,0,1,1,1.48-1.84A1.69,1.69,0,0,1,46.69,222.51ZM55.53,210A1.89,1.89,0,1,1,57,208.15,1.69,1.69,0,0,1,55.53,210Zm5.52,18.41c-1.42,0-2.58-.33-2.58-.74s1.16-.73,2.58-.73,2.58.33,2.58.73S62.47,228.4,61.05,228.4Zm.74-7.36a3,3,0,1,1,2.58-2.95A2.79,2.79,0,0,1,61.79,221Zm7-26.51A1.47,1.47,0,1,1,67.31,196,1.48,1.48,0,0,1,68.78,194.53Zm4,28c-.61,0-1.1-1-1.1-2.21s.49-2.21,1.1-2.21,1.11,1,1.11,2.21S73.45,222.51,72.83,222.51ZM70.26,210a3.33,3.33,0,1,1,3.68-3.31A3.51,3.51,0,0,1,70.26,210Zm9.57,6.63c-.41,0-.74-.83-.74-1.84s.33-1.84.74-1.84.74.82.74,1.84S80.23,216.62,79.83,216.62Z"/><path class="cls-10" d="M615.33,204.08l-.3.06c-3.95,1-95.58,25.73-113.87,86.58a5.47,5.47,0,0,0-.15.58c-3.65,18.84-4.07,50.12,33.16,72.59,39,23.57,16.21,35.35,29.46,44.19s47.13-8.1,24.3-26.51-6.63-38.29,4.42-49.34,26.51-33.14,3.68-34.61-38.29,39.76-58.91,31.66,5.15-49.33,20.62-45.65,17.67,2.94,38.29,0,36.82-14.73,22.83-21.36-34.61-2.21-26.51-19.14S654.8,200.48,615.33,204.08ZM578.1,333.36a1.81,1.81,0,0,1,1.21-.82c1.5-.3,4.6-.42,3.47,4.11C581.37,342.27,575.26,337.82,578.1,333.36Zm2.44,56c.87-1.2,2.24-2.93,2.24-1.93,0,1.47,5.15,5.89,2.2,10.31-2.78,4.16-1.62-.85-4.58-6.38A1.88,1.88,0,0,1,580.54,389.39Zm-2.92,8.38c0,2.94-4.42.73-11.78-2.95-6.94-3.47-1.44-1.71,3.53-4a1.9,1.9,0,0,1,1.82.13C573.17,392.29,577.62,395.48,577.62,397.77Zm-16.94-39c5.16,12.52,15.47,23.56,5.9,14s-13.26-14-13.26-14C550.38,354.32,555.53,346.22,560.68,358.74Zm-54.49-61.86a5.08,5.08,0,0,1,2.61,3.55C503.56,299.26,504.2,295.89,506.19,296.88Zm11.78,25c.74,14.73-7.36,16.94-7.36,2.21a109.34,109.34,0,0,0-.57-13.89,1.87,1.87,0,0,1,2-2.12,36.58,36.58,0,0,0,9.63-.93C525.26,306.44,517.24,307.19,518,321.92Zm16.94,16.94c-1.13,3-.33,5.64.91,6.11a1.94,1.94,0,0,1,1,2.63c-1.47,3.33-3.39,4.76-5.55-.64a64.88,64.88,0,0,0-4.73-9.52,1.87,1.87,0,0,1,2-2.78C532.82,335.61,536.41,334.86,534.91,338.86Zm-11.78-43.45c-6.63,1.47-5.46-8.66,4.42-10.31C536.38,283.63,529.76,293.94,523.13,295.41Zm.74-12.52-.09.07a1.88,1.88,0,0,1-2.82-2.37,21,21,0,0,1,5.85-7.27c7.36-5.16,8.84-3.68,22.09-21.36,5.5-7.33,9-10.6,11.15-11.93a1.88,1.88,0,0,1,2.72,2.3l-8,19.94C547.43,280.68,537.12,272.58,523.87,282.89Zm44.91-9.57c-8.56,1.86-12.42,1.27-14.13.24a1.87,1.87,0,0,1,.12-3.23c2.63-1.4,8.36-4.4,13.28-6.58,6-2.65,3-9.45,7.13-14a1.88,1.88,0,0,1,3.07.45c.86,1.76,1.68,4.87.84,9.87C577.62,268.9,585.72,269.64,568.78,273.32Zm17.05-38.12h0c-.29.2-.57.38-.84.55-8.1,5.16-5.89.74-8.83-9.57-.22-.76-.41-1.39-.58-1.91,1.18,2.24,3.72,5.63,7.94,6.33,8.84,1.47,11.58-5.74,21.36-12.52C614.12,211.68,594.46,229.37,585.83,235.2Z"/><path class="cls-11" d="M589.45,610.89c0,26.66-124.3,48.29-277.62,48.29S34.22,637.55,34.22,610.89c0-5.71,5.69-11.18,16.13-16.26,13.41-6.52,29.51-9.82,45.86-9.82H527.46c16.35,0,32.44,3.3,45.86,9.82C583.76,599.71,589.45,605.18,589.45,610.89Z"/><path class="cls-12" d="M358.6,627.94c-3.2,4.27-9.84,3.68-11.53,3.45H347l-.21,0h-.11l-.09,0-.12,0a43.91,43.91,0,0,1-6-1.61s0,0,0,0c-3.49-1.23-7.33-3.19-8.29-6-1.84-5.53-12.28-12.29-16.58-16-3-2.57-4.25-8.82-4.73-12.35-.21-1.53-.27-2.55-.27-2.55l15.42-.43h0c1.2.82,2.09,1.51,2.47,1.82a1.84,1.84,0,0,0,.31.2c6.27,4.21,11.16,7.81,15,10.86l1.8,1.46a66.16,66.16,0,0,1,9.35,9.05l0,0c.46.61.93,1.26,1.37,1.92l0,0C358.76,621.27,360.53,625.36,358.6,627.94Z"/><polygon class="cls-13" points="301.48 464.89 311.56 597.56 324.99 596.72 317.84 464.78 301.48 464.89"/><path class="cls-13" d="M347.07,631.39H347l-.21,0h-.11l-.09,0-.12,0a19.67,19.67,0,0,1-2.21-.43,24.1,24.1,0,0,1-3.77-1.18s0,0,0,0a4.83,4.83,0,0,1-2.76-2.36,40.79,40.79,0,0,0-10-14.05c-10.86-6.79-14.79-12.7-16.2-16.09a11.39,11.39,0,0,1-.62-1.87,8,8,0,0,1-.27-2.55,4.5,4.5,0,0,1,.7-2.3c3.17-4.9,10.68-.86,14.72,1.87h0c1.2.82,2.09,1.51,2.47,1.82a1.84,1.84,0,0,0,.31.2c6.27,4.21,11.16,7.81,15,10.86l1.8,1.46a66.16,66.16,0,0,1,9.35,9.05l0,0a21,21,0,0,1,1.3,1.8.75.75,0,0,1,.07.12l0,0a6.84,6.84,0,0,1,1,3.3C357.7,630.58,352,632,347.07,631.39Z"/><circle class="cls-12" cx="343.55" cy="615.96" r="0.92"/><path class="cls-12" d="M345.59,606.67,344.47,615s-1.23,1.22-1.23.61.39-7.53.55-10.44Z"/><path class="cls-12" d="M343.55,615.77l-24.75-9.1.48,3.45,4.3,1.84,4.3,1.85S344.47,617.11,343.55,615.77Z"/><path class="cls-12" d="M182.13,627.63c3.47,4.63,10.67,4,12.5,3.75h.07l.23,0,.12,0a.18.18,0,0,0,.1,0l.13,0a48.38,48.38,0,0,0,6.48-1.74l0,0c3.78-1.33,7.94-3.45,9-6.55,2-6,13.31-13.32,18-17.31,3.25-2.79,4.6-9.56,5.12-13.39.23-1.66.3-2.77.3-2.77L217.45,589h0c-1.3.88-2.27,1.64-2.68,2a1.9,1.9,0,0,1-.33.22c-6.81,4.57-12.11,8.47-16.24,11.77l-1.95,1.58a72.06,72.06,0,0,0-10.14,9.81l0,0c-.5.67-1,1.37-1.49,2.09l0,0C182,620.41,180,624.84,182.13,627.63Z"/><polygon class="cls-13" points="244.04 450.9 233.12 594.71 218.56 593.8 226.31 450.79 244.04 450.9"/><path class="cls-13" d="M194.63,631.38h.07l.23,0,.12,0a.18.18,0,0,0,.1,0l.13,0a22.68,22.68,0,0,0,2.4-.47,26.2,26.2,0,0,0,4.08-1.27l0,0a5.18,5.18,0,0,0,3-2.55c3.51-8.89,10.86-15.23,10.86-15.23,11.78-7.36,16-13.77,17.57-17.45a12,12,0,0,0,.67-2,8.79,8.79,0,0,0,.3-2.77,5,5,0,0,0-.76-2.49c-3.44-5.3-11.58-.93-16,2h0c-1.3.88-2.27,1.64-2.68,2a1.9,1.9,0,0,1-.33.22c-6.81,4.57-12.11,8.47-16.24,11.77l-1.95,1.58a72.06,72.06,0,0,0-10.14,9.81l0,0a21.21,21.21,0,0,0-1.41,2l-.08.13,0,0a7.55,7.55,0,0,0-1.07,3.59C183.11,630.5,189.32,632,194.63,631.38Z"/><circle class="cls-12" cx="198.45" cy="614.65" r="1"/><path class="cls-12" d="M196.24,604.58l1.21,9.07s1.33,1.33,1.33.67-.42-8.17-.59-11.32Z"/><path class="cls-12" d="M198.45,614.44l26.83-9.85-.53,3.73-4.66,2-4.66,2S197.45,615.9,198.45,614.44Z"/><path class="cls-13" d="M225.68,262.58S159.4,390.44,148.36,403.69c-3.34,4,4.37,25,4.37,25s-1.43,10.35.05,8.14C162,423,216.1,318.54,220.52,310.44s8.06-32.7,8.06-32.7S229.36,259.63,225.68,262.58Z"/><path class="cls-13" d="M302.26,257.89S437,293.5,437,333.7c0,5.89-136.23-56.7-136.23-56.7S292,275.75,302.26,257.89Z"/><rect class="cls-14" x="252.82" y="193.46" width="28.85" height="64.58" rx="14.42"/><path class="cls-15" d="M319.2,382.14c1.69,34.38-.18,27.71-18.63,18.18-11.09-5.73-14.7-.6-24.53-4.25-.69-.26-.6.06-1.18,0-3.29-.29-6.46-.47-9.72-.8-3.27.35-6.44.54-9.75.84-.59.05-.48-.25-1.18,0-10,3.5-13.35-1.25-24.84,3.87-22.49,10-17.86,9.87-17.93-19.17,0-8.59.85-15,.94-18,.77-23.65-2.26-90.47,16.07-102.48,5.86-3.84,7.37-2.22,12.52-5.89,3.92-2.8,5.15-5.16,10.31-10.31,1.58-1.58,15.46-1.47,15.46-1.47h5.89c1.42,0,8.64-.16,10-.33,4.74-.58,9.51,7,17.06,13.29,3.85,3.18,6.92,1,11.07,4.73,13,11.7,7.52,83,7.92,104.39C318.77,367.5,318.78,373.65,319.2,382.14Z"/><path class="cls-16" d="M267.61,233.55s-9-1.39-14.21-9.32a3.51,3.51,0,0,1-.59-1.88v-2.16a3.38,3.38,0,0,1,3.61-3.41l22.09,1.46a3.38,3.38,0,0,1,3.17,3.38h0a3.41,3.41,0,0,1-.6,1.92c-1.8,2.62-7.4,10-13.46,10Z"/><ellipse class="cls-13" cx="267.74" cy="178.59" rx="38.71" ry="47.69"/><path class="cls-17" d="M325,484.53c-.1,2.55-1.91,4.55-4.12,4.55H277.3V438.54s-.42-.59-1-1.5c-2.89-4.47-8.8-4.06-11.22.77a5.43,5.43,0,0,0-.53,1.91c-.46,5.5-2.64,31.73-3.16,44.83a4.43,4.43,0,0,1-4.11,4.53H210.21s.09-18.63.65-39.59c.51-19.16.12-38.77.12-49.48v-5.89c0-.73,5.3-1.58,7.08-1.74,14.25-1.37,81.53-4,98.86-1.09,3.7.62,2.57,2.15,2.73,4,.07.79.16,1.73.27,2.83C321.43,414.67,325.73,464.52,325,484.53Z"/><path class="cls-18" d="M465.69,331.49q0,12.22-.31,24.21-.47,17.55-1.55,34.48c-1,16.26-2.42,32-4.14,47.23q-2,17.41-4.42,33.73c-2.14,14.35-4.52,28-7.07,40.87-2.25,11.38-4.62,22.14-7.06,32.17-13,53.78-27.85,87-35.09,87-9.2,0-28.09-46.05-42.16-117.46-1.88-9.52-3.67-19.5-5.34-29.88-2.72-16.88-5.12-34.82-7.05-53.61-.92-9-1.74-18.21-2.44-27.57-1.41-18.94-2.31-38.57-2.57-58.74h0q-.09-6.19-.09-12.45,0-6.58.11-13.12c.3-18.45,1.22-36.46,2.62-53.9q1-12.41,2.32-24.41c1.91-17.63,4.29-34.55,7-50.59q2-11.73,4.12-22.82c15.82-81.25,38.27-134.86,43.5-134.86,6.23,0,33.28,66.59,48.72,163.83q2.6,16.29,4.7,33.67c1.78,14.84,3.26,30.22,4.32,46q1.15,17.15,1.62,35Q465.7,320.79,465.69,331.49Z"/><path class="cls-19" d="M248.38,198.78s23.59,8.29,37.81,1.76h0c-.19.24-6.83,8.34-21.05,9.09C265.15,209.63,253.65,209.1,248.38,198.78Z"/><path class="cls-19" d="M258.81,168.46s-2.06-4.82-10.33-4.82-11,4.82-11,4.82,2.07,4.82,9.64,5.51,11.71-5.51,11.71-5.51Z"/><path class="cls-19" d="M296.37,168.46s-2.07-4.82-10.33-4.82-11,4.82-11,4.82,2.07,4.82,9.65,5.51,11.71-5.51,11.71-5.51Z"/><path class="cls-20" d="M242.12,158.31s8.86-3.93,14-.87C256.09,157.44,251.32,156.13,242.12,158.31Z"/><path class="cls-20" d="M293.57,160s-9.64-6.19-15.65-2.17C277.92,157.85,283.4,156.3,293.57,160Z"/><ellipse class="cls-21" cx="249.1" cy="168.57" rx="3.06" ry="5.02"/><ellipse class="cls-21" cx="285.78" cy="168.57" rx="3.06" ry="5.02"/><ellipse class="cls-19" cx="247.79" cy="165.95" rx="0.44" ry="0.65"/><ellipse class="cls-19" cx="284.91" cy="165.95" rx="0.44" ry="0.65"/><path class="cls-22" d="M270.92,191.9s-8.8,2-7.72-3.54,4.29-9.22,5.53-16.46c0,0,.73,4.59-2.17,11.11a13.57,13.57,0,0,0-1.65,5.51S263.51,191.22,270.92,191.9Z"/><path class="cls-23" d="M157.85,525.47h0c-2.32,0-4.41-2.64-4.64-6L132.28,215c-.23-3.34,1.48-6.11,3.8-6.16h0c2.32,0,4.41,2.64,4.64,6l20.93,304.51C161.87,522.65,160.17,525.42,157.85,525.47Z"/><path class="cls-24" d="M134.07,247.6l-13.94-20.92a6,6,0,0,1-.94-3l-3.51-67.91c-.39-7.46,3.21-13.66,8.33-14.38,2.71-.38,5.66-.71,8.64-.91,6.63-.44,12.75,6.8,13.9,16.34l8.09,67.44a5.69,5.69,0,0,1-.54,3.32l-10.66,19.8a5.28,5.28,0,0,0-.47,1.32c-.6,2.69-7.43,2.81-8.3.12A5.13,5.13,0,0,0,134.07,247.6Z"/><path class="cls-25" d="M161.56,512.28,175.5,533.2a6,6,0,0,1,.94,3L180,604.1c.39,7.47-3.21,13.67-8.33,14.38-2.71.38-5.67.71-8.64.91-6.63.45-12.76-6.79-13.9-16.34L141,535.62a5.76,5.76,0,0,1,.55-3.32l10.66-19.81a4.9,4.9,0,0,0,.46-1.32c.6-2.68,7.43-2.81,8.31-.12A5.21,5.21,0,0,0,161.56,512.28Z"/><polygon class="cls-26" points="155.96 560.36 151.62 497.21 160.09 496.71 164.4 560.27 160.94 570.78 160.9 570.78 155.96 560.36"/><polygon class="cls-26" points="139.67 199.51 134.73 189.09 134.71 189.05 134.69 189.09 131.23 199.61 135.57 262.85 144.01 262.67 139.67 199.51"/><path class="cls-27" d="M459.47,229.29l-101-39.82q2-11.73,4.12-22.82l92.22,29Q457.37,211.91,459.47,229.29Z"/><path class="cls-27" d="M465.41,310.29,349.13,264.47q1-12.41,2.32-24.41l112.34,35.28Q464.95,292.49,465.41,310.29Z"/><path class="cls-27" d="M465.38,355.7q-.47,17.55-1.55,34.48L346.49,343.94h0q-.09-6.19-.09-12.45,0-6.58.11-13.12Z"/><path class="cls-27" d="M459.69,437.41q-2,17.41-4.42,33.73L351.5,430.25c-.92-9-1.74-18.21-2.44-27.57Z"/><path class="cls-27" d="M448.2,512c-2.25,11.38-4.62,22.14-7.06,32.17l-77.25-30.44c-1.88-9.52-3.67-19.5-5.34-29.88Z"/><path class="cls-19" d="M56.27,199.68h0Z"/><path class="cls-28" d="M525.72,303.88c-1.23,3.55-1.85,6.26-1.85,6.26S520.7,309.23,525.72,303.88Z"/><path class="cls-28" d="M583.66,239.72c-1.1-2.06-1-3.11,0,0Z"/><path class="cls-28" d="M530.48,346.94c-2.92-2.92-2.19-2.74,0,0Z"/><path class="cls-28" d="M546.51,358.13c.47-1.81.83-3.57,1.07-4.85,0,.31-.09.65-.15,1A17.41,17.41,0,0,1,546.51,358.13Z"/><path class="cls-28" d="M547.9,351.36c0,.07-.11.77-.31,1.83C547.79,351.9,547.88,351.35,547.9,351.36Z"/><path class="cls-13" d="M465,320.53v4.33s-7.36,0-9.57-1.47-5.16-1.47-4.42,1.47l7.36,2.95s-8.1-1.47-9.57.74,6.63,2.21,6.63,2.21-6.63.73-5.89,3.68,11.78-2.21,11.78-2.21-10.31,4.42-9.58,7.36,9.58-3.68,9.58-3.68-5.16,5.89-1.48,8.1c0,0,4.42.74,8.11-10.31s-.74-23.56-.74-23.56l-2.95-1.44h0C464.75,312.63,464.26,316.07,465,320.53Z"/><path class="cls-13" d="M141.73,415.15c-.67-1.92-.24-4,1.07-4.9,1.9-1.37,4.38-2.74,4.46-.7.14,3.34-2.22,4.2-2.22,4.2s3.17-4.54,4.73-1.72-1.75,4-1.75,4,4.74-1.73,5.82,1.26-3.65,4.72-3.65,4.72,5.69-2.07,6.78.92c.43,1.2-.3,2.27-1.33,3.14-1.62,1.35-1.77,1.4-.22,3.46,1.4,1.87,1.59.05,1.8,2,.29,2.53-4.24-.37-6.75-2.84S148.78,435.15,141.73,415.15Z"/><path class="cls-29" d="M305.94,184.52s1.48-39.58-21.67-45.21c0,0-8.48,1.86-7.87,0s-13.33,2.47-13.33,0-8.48,3.71-8.48,1.86-7.87,2.47-7.26,1.23-2.43,4.33-4.85,2.48-8.7,10.19-8.7,10.19-4.42,10.78-4.42,28.72c0,0-6.26-29.63-3.84-46.95s12.72-22.27,18.17-24.75,9.69-3.09,8.48,0-4.84,4.33-4.84,4.33,6.66-5.57,12.71-6.18-3.63,4.94-3.63,4.94,7.87-6.18,17.57-6.8-4.24,3.71-4.24,3.71,13.32-4.33,23-2.47-12.11,3.09-12.11,3.09,27.13-3.61,33-.62c2.88,1.47-11.19,3.09-11.19,3.09s17.22-1.73,22,2.06c1.79,1.41-13.52,2.27-13.52,2.27s17.85-.09,17.85,6.57c0,3-10,.86-10,.86a9,9,0,0,1,5.64,8.71c0,.74-5-.73-8.07-1.91C307.88,130.44,315.43,167.33,305.94,184.52Z"/></g></g></g></svg>