<svg width="570" height="104" viewBox="0 0 570 104" fill="none" xmlns="http://www.w3.org/2000/svg">
<path fill-rule="evenodd" clip-rule="evenodd" d="M34.3822 103.375C22.7675 91.3538 0 61.1891 0 34.6177C0 8.04637 22.7675 0.494405 34.3822 0.0089339V0C34.4213 0.00133103 34.4606 0.00274349 34.5 0.00423785C34.5394 0.00274349 34.5786 0.00133103 34.6177 0V0.0089339C46.2324 0.494405 68.9999 8.04637 68.9999 34.6177C68.9999 61.1891 46.2324 91.3538 34.6177 103.375V103.618C34.5786 103.578 34.5394 103.537 34.5 103.497C34.4606 103.537 34.4213 103.578 34.3822 103.618V103.375Z" fill="#19B3A9"/>
<path fill-rule="evenodd" clip-rule="evenodd" d="M34.5555 10.8328L36.7671 17.6395H43.9241L38.134 21.8463L40.3456 28.653L34.5555 24.4462L28.7654 28.653L30.977 21.8463L25.1869 17.6395H32.3439L34.5555 10.8328ZM52.0947 24.5278L53.4432 28.6782H57.8073L54.2767 31.2433L55.6253 35.3937L52.0947 32.8286L48.5641 35.3937L49.9127 31.2433L46.3821 28.6782H50.7461L52.0947 24.5278ZM18.3649 28.6782L17.0163 24.5278L15.6677 28.6782H11.3037L14.8343 31.2433L13.4857 35.3937L17.0163 32.8286L20.5469 35.3937L19.1983 31.2433L22.7289 28.6782H18.3649Z" fill="white"/>
<path d="M28.1434 70.2969H20.3687V50.9829H28.1434V70.2969Z" stroke="#F3F3F3" stroke-width="4"/>
<path d="M23.0869 54.4719H25.1151V55.6577H23.0869V54.4719ZM23.0869 59.9746H25.1151V61.1604H23.0869V59.9746ZM23.0869 65.7669H25.1151V66.9527H23.0869V65.7669Z" stroke="#F3F3F3" stroke-width="2"/>
<path d="M44.6281 70.5326H30.7305V36.6179H44.6281V70.5326Z" stroke="white" stroke-width="4"/>
<path d="M35.3823 42.9182H39.5052V46.0991H35.3823V42.9182ZM35.3823 51.867H39.5052V55.0479H35.3823V51.867ZM35.3823 61.2868H39.5052V64.4677H35.3823V61.2868Z" stroke="white" stroke-width="2"/>
<path d="M143.236 48.44L144.596 55.96L121.716 59.8L114.836 74.92L107.956 71.88L134.596 13.64L141.476 13.56L165.796 64.68L158.996 67.96L138.036 24.12L125.556 51.48L143.236 48.44ZM172.594 68.04L176.274 40.44L180.594 37.24L204.114 41L202.834 23.08L210.434 22.6L213.234 64.68L209.874 68.68L176.674 72.28L172.594 68.04ZM180.674 64.28L205.474 61.64L204.594 48.68L183.234 45.24L180.674 64.28ZM230.946 69.24L218.866 30.04L226.066 27.8L235.906 59.72L256.306 31.4L262.386 35.8L237.586 70.28L230.946 69.24ZM268.603 68.2L265.563 63.96L269.403 35.48L272.763 32.28L296.203 30.36L299.883 32.36L306.683 45.8L304.043 51.16L279.163 56.36L277.563 49.08L297.643 44.76L294.283 38.12L276.363 39.48L273.483 61.48L301.003 66.6L299.563 73.96L268.603 68.2ZM339.58 42.6L322.54 45.32L319.02 68.92L311.5 67.8L315.5 41.48L318.62 38.28L342.62 34.52L347.02 38.04L348.54 69.48L340.94 69.88L339.58 42.6ZM377.218 63.16L392.898 67.64L390.898 74.84L372.098 69.56L369.378 65.56L371.378 44.04L355.618 45.16L354.978 37.56L372.098 36.36L372.898 27.96L380.418 28.68L379.778 35.88L397.778 34.6L398.258 42.04L379.058 43.48L377.218 63.16ZM435.105 65.8L409.825 69.96L405.425 66.04L407.345 33.72L414.865 34.12L413.265 61.72L433.345 58.52L435.025 33.64L442.625 34.28L440.865 60.44L447.665 64.52L443.745 70.92L435.105 65.8ZM452.456 30.44L459.976 30.2L460.216 40.04L478.456 31.4L481.656 38.36L460.456 48.28L461.256 72.44L453.656 72.6L452.456 30.44ZM487.118 68.2L484.078 63.96L487.918 35.48L491.278 32.28L514.718 30.36L518.398 32.36L525.198 45.8L522.558 51.16L497.678 56.36L496.078 49.08L516.158 44.76L512.798 38.12L494.878 39.48L491.998 61.48L519.518 66.6L518.078 73.96L487.118 68.2ZM530.656 65.8L555.216 36.6L530.016 33.56L530.896 26.12L563.056 29.88L565.456 36.12L542.256 63.8L566.816 61.8L567.456 69.4L533.856 71.96L530.656 65.8Z" fill="white"/>
</svg>
