<svg width="409" height="742" viewBox="0 0 409 742" fill="none" xmlns="http://www.w3.org/2000/svg">
<mask id="mask0" mask-type="alpha" maskUnits="userSpaceOnUse" x="-5" y="0" width="414" height="742">
<rect x="-5" width="414" height="742" fill="#C4C4C4"/>
</mask>
<g mask="url(#mask0)">
<path d="M285.35 39.9001C313.784 59.0108 380.298 56.0026 410 52.1097V699.749C410 657.281 344.421 618.529 312.382 657.281C280.344 696.033 240.296 702.404 178.221 699.749C116.146 697.095 160.199 648.788 95.1206 657.281C43.0579 664.076 6.68074 695.149 -5 709.836V657.281V100.948C1.00724 77.5906 22.4331 29.6016 60.0784 24.5054C107.135 18.1351 93.1182 52.1097 134.668 66.9735C176.218 81.8374 168.209 63.2576 205.253 39.9001C242.298 16.5426 249.807 16.0118 285.35 39.9001Z" fill="#180731"/>
</g>
</svg>
